<?xml version="1.0" encoding="UTF-8"?>
<!DOCTYPE svg PUBLIC "-//W3C//DTD SVG 1.1//EN" "http://www.w3.org/Graphics/SVG/1.1/DTD/svg11.dtd">
<!-- Creator: CorelDRAW -->
<svg xmlns="http://www.w3.org/2000/svg" xml:space="preserve" width="19.7876mm" height="24.1243mm" version="1.1" style="shape-rendering:geometricPrecision; text-rendering:geometricPrecision; image-rendering:optimizeQuality; fill-rule:evenodd; clip-rule:evenodd"
viewBox="0 0 183.88 224.17"
 xmlns:xlink="http://www.w3.org/1999/xlink"
 xmlns:xodm="http://www.corel.com/coreldraw/odm/2003">
 <defs>
  <style type="text/css">
   <![CDATA[
    .fil0 {fill:#4D99CF;fill-rule:nonzero}
   ]]>
  </style>
 </defs>
 <g id="Layer_x0020_1">
  <metadata id="CorelCorpID_0Corel-Layer"/>
  <path class="fil0" d="M109.38 182.61l0 34 16.37 0 0 -84.38 10.97 -10.97 -5.79 -5.94 -5.18 4.31 0 -25.19 -16.37 -12.6 0 88.16 -5.18 -4.31 -5.79 5.94 10.97 10.97zm74.5 37.78c0,2.09 -1.69,3.78 -3.78,3.78l-176.32 0c-2.09,0 -3.78,-1.69 -3.78,-3.78 0,-2.09 1.69,-3.78 3.78,-3.78l20.14 0 0 -81.86c0,-0.67 -0.26,-1.31 -0.74,-1.78 -0.47,-0.47 -1.11,-0.74 -1.78,-0.74 -2.44,0 -6.29,0 -9.76,0 -1.09,0 -2.07,-0.71 -2.4,-1.75 -0.34,-1.04 0.04,-2.18 0.93,-2.82 13.3,-9.5 42.7,-30.5 42.7,-30.5l0 72.85 -5.18 -4.31 -5.79 5.94 10.97 10.97 0 34 16.37 0 0 -84.38 10.97 -10.97 -5.79 -5.94 -5.18 4.31 0 -34.17c0,0 16.21,-11.58 21.22,-15.16 0.88,-0.63 2.05,-0.63 2.93,0 4.2,3 15.97,11.41 15.97,11.41l0 -9.94c0,-0.67 0.26,-1.31 0.74,-1.78 0.47,-0.47 1.11,-0.74 1.78,-0.74 3.08,0 8.26,0 11.33,0 0.67,0 1.31,0.26 1.78,0.74 0.47,0.47 0.74,1.11 0.74,1.78 0,5.41 0,17.95 0,21.63 0,0 33.58,23.99 47.95,34.25 0.89,0.64 1.27,1.78 0.93,2.82 -0.33,1.04 -1.3,1.75 -2.4,1.75 -5.09,0 -11.38,0 -14.81,0 -0.67,0 -1.31,0.26 -1.78,0.74 -0.47,0.47 -0.74,1.11 -0.74,1.78 0,12.4 0,66.96 0,81.86l25.19 0c2.09,0 3.78,1.69 3.78,3.78zm-55.61 -182.61c10.43,0 18.89,-8.47 18.89,-18.89 0,-10.42 -8.47,-18.89 -18.89,-18.89 -10.43,0 -18.89,8.47 -18.89,18.89 0,10.43 8.47,18.89 18.89,18.89zm-36.33 16.56c5.66,0 10.26,-4.6 10.26,-10.26 0,-5.66 -4.6,-10.26 -10.26,-10.26 -5.66,0 -10.26,4.6 -10.26,10.26 0,5.66 4.6,10.26 10.26,10.26zm25.62 -3.96c2.89,0 5.24,2.35 5.24,5.24 0,2.89 -2.35,5.24 -5.24,5.24 -2.89,0 -5.24,-2.35 -5.24,-5.24 0,-2.89 2.35,-5.24 5.24,-5.24z"/>
 </g>
</svg>
